<svg width="38" height="59" viewBox="0 0 38 59" fill="none" xmlns="http://www.w3.org/2000/svg">
<path fill-rule="evenodd" clip-rule="evenodd" d="M8.24361 21.2612C7.16188 21.2612 6.09075 21.4742 5.09136 21.8882C4.09197 22.3022 3.18391 22.9089 2.41901 23.6738C1.65411 24.4387 1.04736 25.3468 0.633404 26.3462C0.219444 27.3455 0.00638219 28.4167 0.00638219 29.4984C0.00638219 30.5801 0.219444 31.6513 0.633404 32.6507C1.04736 33.65 1.65411 34.5581 2.41901 35.323C3.18391 36.0879 4.09197 36.6947 5.09136 37.1086C6.09075 37.5226 7.16188 37.7356 8.24361 37.7356H16.4808V21.2612H8.24361ZM16.4808 16.4776H8.24361C6.05854 16.4776 3.96296 15.6096 2.41788 14.0646C0.872803 12.5195 0.00478703 10.4239 0.00478703 8.23882C0.00478703 6.05375 0.872803 3.95818 2.41788 2.4131C3.96296 0.868016 6.05854 0 8.24361 0H16.4808V16.4776ZM21.2644 0V16.4776H29.5016C31.6586 16.4352 33.7129 15.5485 35.2234 14.0081C36.7338 12.4676 37.5799 10.3962 37.5799 8.23882C37.5799 6.0814 36.7338 4.01002 35.2234 2.46956C33.7129 0.929105 31.6586 0.0424393 29.5016 0H21.2644ZM29.5016 21.258C27.3394 21.2577 25.2638 22.1076 23.7227 23.6242C22.1817 25.1408 21.2987 27.2026 21.2644 29.3645V29.6292C21.2908 31.2524 21.7962 32.8316 22.7172 34.1684C23.6382 35.5053 24.9338 36.5402 26.4411 37.1432C27.9483 37.7462 29.6002 37.8903 31.1891 37.5575C32.7781 37.2247 34.2333 36.4298 35.3719 35.2727C36.5105 34.1155 37.2819 32.6477 37.589 31.0536C37.8961 29.4595 37.7254 27.8102 37.0982 26.3128C36.471 24.8154 35.4153 23.5368 34.0637 22.6374C32.7122 21.7381 31.125 21.2582 29.5016 21.258ZM8.24361 42.5192C6.61368 42.5185 5.02016 43.0013 3.66461 43.9064C2.30906 44.8115 1.25237 46.0982 0.628185 47.6039C0.00399786 49.1096 -0.159646 50.7666 0.157952 52.3652C0.47555 53.9639 1.26012 55.4325 2.41244 56.5853C3.56476 57.7381 5.03305 58.5232 6.63163 58.8414C8.2302 59.1596 9.88723 58.9966 11.3932 58.373C12.8991 57.7494 14.1863 56.6932 15.0919 55.338C15.9975 53.9828 16.4808 52.3895 16.4808 50.7596V42.5192H8.24361Z" fill="#08A045"/>
</svg>
