<svg width="48" height="48" viewBox="0 0 48 48" fill="none" xmlns="http://www.w3.org/2000/svg">
<path fill-rule="evenodd" clip-rule="evenodd" d="M17.284 0.948447C12.6265 2.29961 8.48612 5.0174 5.40291 8.74725C2.3197 12.4771 0.436846 17.0458 0 21.8574H11.0155C11.6576 14.5355 13.7892 7.4203 17.2806 0.945018L17.284 0.948447ZM11.0155 26.1427H0C0.435936 30.9544 2.31798 35.5236 5.40059 39.2541C8.4832 42.9846 12.6232 45.7031 17.2806 47.0551C13.7892 40.5798 11.6576 33.4646 11.0155 26.1427ZM22.8021 47.9704C18.6285 41.3782 16.0697 33.9012 15.3322 26.1427H32.6644C31.9269 33.9012 29.3681 41.3782 25.1945 47.9704C24.3975 48.0099 23.599 48.0099 22.8021 47.9704ZM30.7194 47.0516C35.3763 45.6999 39.5159 42.9818 42.5985 39.252C45.6811 35.5222 47.5634 30.9538 48 26.1427H36.9845C36.3424 33.4646 34.2108 40.5798 30.7194 47.0551V47.0516ZM36.9845 21.8574H48C47.5641 17.0456 45.682 12.4765 42.5994 8.74601C39.5168 5.01554 35.3768 2.29698 30.7194 0.945018C34.2108 7.4203 36.3424 14.5355 36.9845 21.8574ZM22.8021 0.0296737C23.6002 -0.00989125 24.3998 -0.00989125 25.1979 0.0296737C29.3703 6.62215 31.9279 14.0992 32.6644 21.8574H15.3356C16.0826 14.0512 18.6472 6.56736 22.8021 0.0296737Z" fill="#08A045"/>
</svg>
