<svg width="49" height="41" viewBox="0 0 49 41" fill="none" xmlns="http://www.w3.org/2000/svg">
<path d="M4.76276 33.7769H17.5005L16.9509 37.5213H14.1641C13.2274 37.5213 12.4339 38.2939 12.4339 39.2506C12.4339 40.2074 13.2274 41 14.1633 41H33.4122C34.3481 41 35.1416 40.2065 35.1416 39.2506C35.1384 38.793 34.9552 38.3549 34.6316 38.0313C34.3079 37.7077 33.8699 37.5244 33.4122 37.5213H30.6254L30.075 33.7769H42.8127C46.2923 33.7769 48.0417 32.1082 48.0417 28.5479V5.22896C48.0417 1.66861 46.2923 0 42.8127 0H4.76276C1.28315 0 0 1.66861 0 5.22896V28.5479C0 32.1082 1.28315 33.7769 4.76276 33.7769ZM3.6845 24.8243C3.07418 24.8243 2.80938 24.5795 2.80938 23.9492V5.28973C2.80938 3.84424 3.44054 3.27559 4.82353 3.27559H42.752C44.1558 3.27559 44.7661 3.84424 44.7661 5.28973V23.9484C44.7661 24.5786 44.5013 24.8235 43.891 24.8235L3.6845 24.8243ZM23.7877 31.7627C22.7703 31.7627 21.8951 30.9076 21.8951 29.8701C21.8951 28.8735 22.7703 27.9983 23.7877 27.9983C24.8052 27.9983 25.6803 28.8735 25.6803 29.8701C25.6803 30.9076 24.8052 31.7627 23.7877 31.7627Z" fill="#08A045"/>
</svg>
