<svg width="49" height="50" viewBox="0 0 49 50" fill="none" xmlns="http://www.w3.org/2000/svg">
<path d="M24.2402 33.75C21.9275 33.75 19.7095 32.8281 18.0742 31.1872C16.4388 29.5462 15.5201 27.3206 15.5201 25C15.5201 22.6794 16.4388 20.4538 18.0742 18.8128C19.7095 17.1719 21.9275 16.25 24.2402 16.25C26.5529 16.25 28.7709 17.1719 30.4062 18.8128C32.0416 20.4538 32.9603 22.6794 32.9603 25C32.9603 27.3206 32.0416 29.5462 30.4062 31.1872C28.7709 32.8281 26.5529 33.75 24.2402 33.75ZM42.7517 27.425C42.8514 26.625 42.9261 25.825 42.9261 25C42.9261 24.175 42.8514 23.35 42.7517 22.5L48.0087 18.425C48.4821 18.05 48.6066 17.375 48.3076 16.825L43.3247 8.175C43.0258 7.625 42.3531 7.4 41.805 7.625L35.6012 10.125C34.3057 9.15 32.9603 8.3 31.3907 7.675L30.4688 1.05C30.4182 0.755547 30.2654 0.488572 30.0374 0.296383C29.8093 0.104195 29.5209 -0.000799436 29.2231 4.58367e-06H19.2573C18.6344 4.58367e-06 18.1112 0.450005 18.0116 1.05L17.0897 7.675C15.5201 8.3 14.1747 9.15 12.8792 10.125L6.67543 7.625C6.12731 7.4 5.45462 7.625 5.15565 8.175L0.172736 16.825C-0.151153 17.375 -0.00166504 18.05 0.471711 18.425L5.72868 22.5C5.62902 23.35 5.55428 24.175 5.55428 25C5.55428 25.825 5.62902 26.625 5.72868 27.425L0.471711 31.575C-0.00166504 31.95 -0.151153 32.625 0.172736 33.175L5.15565 41.825C5.45462 42.375 6.12731 42.575 6.67543 42.375L12.8792 39.85C14.1747 40.85 15.5201 41.7 17.0897 42.325L18.0116 48.95C18.1112 49.55 18.6344 50 19.2573 50H29.2231C29.846 50 30.3692 49.55 30.4688 48.95L31.3907 42.325C32.9603 41.675 34.3057 40.85 35.6012 39.85L41.805 42.375C42.3531 42.575 43.0258 42.375 43.3247 41.825L48.3076 33.175C48.6066 32.625 48.4821 31.95 48.0087 31.575L42.7517 27.425Z" fill="#08A045"/>
</svg>
