<svg width="50" height="41" viewBox="0 0 50 41" fill="none" xmlns="http://www.w3.org/2000/svg">
<mask id="mask0_5_132" style="mask-type:luminance" maskUnits="userSpaceOnUse" x="0" y="0" width="50" height="41">
<path d="M47.0404 1H2.9596C1.87734 1 1 1.87734 1 2.9596V37.4404C1 38.5227 1.87734 39.4 2.9596 39.4H47.0404C48.1227 39.4 49 38.5227 49 37.4404V2.9596C49 1.87734 48.1227 1 47.0404 1Z" fill="white" stroke="white" stroke-width="2"/>
<path d="M15.4 14.1373C13 10.5997 8.79761 12.9253 9.09881 16.5613C9.40001 20.1997 14.2 20.1997 14.4988 23.8381C14.8 27.4741 10.6 29.7997 8.20001 26.2609M27.4 12.9997H22.6V28.5997H27.4M22.6 21.3997H27.4" stroke="black" stroke-width="2" stroke-linecap="round" stroke-linejoin="round"/>
<path d="M41.8 16.6C41.8 14.6118 40.1882 13 38.2 13C36.2118 13 34.6 14.6118 34.6 16.6V25C34.6 26.9882 36.2118 28.6 38.2 28.6C40.1882 28.6 41.8 26.9882 41.8 25V16.6Z" stroke="black" stroke-width="2" stroke-linecap="round" stroke-linejoin="round"/>
</mask>
<g mask="url(#mask0_5_132)">
<path d="M-3.79999 -8.59998H53.8V49H-3.79999V-8.59998Z" fill="#08A045"/>
</g>
</svg>
