<svg width="48" height="50" viewBox="0 0 48 50" fill="none" xmlns="http://www.w3.org/2000/svg">
<path d="M21.4486 0L14.0223 3.34167C14.0223 3.34167 26.7088 9.00833 28.2123 9.70625C29.7033 10.4042 31.824 11.6792 29.3823 13.1C26.9407 14.5208 24.3645 14.0937 22.6332 13.2875C20.904 12.4875 8.11183 6.50208 8.11183 6.50208L0.528087 9.95208C0.528087 9.95208 13.782 16.0667 15.853 17.0708C17.9301 18.075 25.6961 20.7875 33.4144 17.075C41.1328 13.3646 40.1677 11.7062 40.1822 11.4C40.1967 11.0938 40.1077 9.45625 38.8734 8.34375C37.6329 7.23125 33.9487 5.47917 32.3976 4.73958C30.8444 3.99167 21.4528 0 21.4528 0H21.4486ZM0 11.0396V38.5708L6.01398 41.4917V24.9021L9.2964 42.8187L14.6394 45.4083L18.0771 30.5042V46.8083L24.116 49.6833V22.1729L14.948 17.975L12.0425 31.0917L9.1183 15.2625L0 11.0396ZM34.7088 17.5292L25.1328 22.3521L25.1576 50L48 39.1146L47.9482 31.5875L34.7088 37.6708V17.5292Z" fill="#08A045"/>
</svg>
