<svg width="42" height="66" viewBox="0 0 42 66" fill="none" xmlns="http://www.w3.org/2000/svg">
<path fill-rule="evenodd" clip-rule="evenodd" d="M9.08608 23.434C7.8938 23.434 6.7132 23.6688 5.61168 24.1251C4.51016 24.5814 3.50929 25.2501 2.66623 26.0932C1.82316 26.9363 1.1544 27.9371 0.698135 29.0386C0.24187 30.1402 0.00703442 31.3208 0.00703442 32.513C0.00703442 33.7053 0.24187 34.8859 0.698135 35.9874C1.1544 37.089 1.82316 38.0898 2.66623 38.9329C3.50929 39.776 4.51016 40.4447 5.61168 40.901C6.7132 41.3573 7.8938 41.5921 9.08608 41.5921H18.1651V23.434H9.08608ZM18.1651 18.1616H9.08608C6.6777 18.1616 4.36796 17.2049 2.66498 15.5019C0.962001 13.7989 0.00527625 11.4892 0.00527625 9.08081C0.00527625 6.67243 0.962001 4.36269 2.66498 2.65971C4.36796 0.956725 6.6777 0 9.08608 0H18.1651V18.1616ZM23.4375 0V18.1616H32.5166C34.894 18.1148 37.1583 17.1376 38.8231 15.4397C40.4879 13.7418 41.4205 11.4587 41.4205 9.08081C41.4205 6.7029 40.4879 4.41983 38.8231 2.72195C37.1583 1.02406 34.894 0.0467764 32.5166 0H23.4375ZM32.5166 23.4305C30.1334 23.4302 27.8457 24.3669 26.1471 26.0385C24.4486 27.7101 23.4753 29.9826 23.4375 32.3654V32.6572C23.4666 34.4463 24.0237 36.1869 25.0389 37.6604C26.054 39.1338 27.4819 40.2745 29.1432 40.9391C30.8046 41.6037 32.6252 41.7626 34.3766 41.3958C36.1279 41.0289 37.7318 40.1528 38.9868 38.8774C40.2418 37.602 41.0919 35.9842 41.4305 34.2272C41.769 32.4702 41.5808 30.6523 40.8895 29.0019C40.1982 27.3515 39.0346 25.9422 37.5449 24.9509C36.0553 23.9597 34.3059 23.4307 32.5166 23.4305ZM9.08608 46.8645C7.28957 46.8638 5.5332 47.3959 4.03912 48.3935C2.54504 49.391 1.38036 50.8093 0.692383 52.4689C0.00440643 54.1284 -0.175961 55.9547 0.174094 57.7168C0.52415 59.4789 1.3889 61.0976 2.65898 62.3681C3.92906 63.6387 5.54741 64.5041 7.30936 64.8548C9.0713 65.2056 10.8977 65.0259 12.5575 64.3386C14.2173 63.6512 15.636 62.4871 16.6342 60.9934C17.6324 59.4997 18.1651 57.7436 18.1651 55.947V46.8645H9.08608Z" fill="#08A045"/>
</svg>
