<svg width="53" height="54" viewBox="0 0 53 54" fill="none" xmlns="http://www.w3.org/2000/svg">
<mask id="mask0_5_35" style="mask-type:luminance" maskUnits="userSpaceOnUse" x="0" y="0" width="53" height="54">
<path d="M0 0.510986H52.9054V53.4164H0V0.510986Z" fill="white"/>
</mask>
<g mask="url(#mask0_5_35)">
<path fill-rule="evenodd" clip-rule="evenodd" d="M0 0.510986H52.9054V53.4164H0V0.510986ZM40.444 44.8634C37.9905 44.8634 36.604 43.5848 35.5392 41.8434L31.4986 44.191C32.9579 47.0744 35.9404 49.2744 40.5586 49.2744C45.2804 49.2744 48.7965 46.8231 48.7965 42.346C48.7965 38.1951 46.4113 36.35 42.1877 34.5358L40.9444 34.0045C38.8106 33.0787 37.8869 32.4769 37.8869 30.9845C37.8869 29.7787 38.8128 28.8551 40.2677 28.8551C41.6939 28.8551 42.6131 29.4569 43.4662 30.9845L47.3372 28.5002C45.6993 25.619 43.4288 24.519 40.2677 24.519C35.828 24.519 32.9865 27.3583 32.9865 31.0881C32.9865 35.1332 35.3673 37.0488 38.956 38.5764L40.1993 39.1099C42.4676 40.1019 43.8189 40.7059 43.8189 42.4099C43.8189 43.8339 42.5029 44.8634 40.444 44.8634ZM21.1776 44.8303C19.4692 44.8303 18.7572 43.662 17.9768 42.2732L13.9296 44.7245C15.1023 47.2066 17.4081 49.2656 21.387 49.2656C25.7936 49.2656 28.8114 46.9223 28.8114 41.775V24.8012H23.8405V41.7089C23.8405 44.1932 22.8089 44.8303 21.1754 44.8303" fill="#08A045"/>
</g>
</svg>
