<svg width="54" height="59" viewBox="0 0 54 59" fill="none" xmlns="http://www.w3.org/2000/svg">
<path fill-rule="evenodd" clip-rule="evenodd" d="M53.6309 15.9545L26.8155 0.306641L0 15.9545V43.0752L4.15021 45.4969L12.6363 42.0645C13.7782 41.6021 14.7562 40.8093 15.4448 39.7877C16.1335 38.7661 16.5015 37.5621 16.5018 36.3301V15.0758H20.6273V36.3301C20.627 38.3839 20.0135 40.3908 18.8655 42.0938C17.7174 43.7968 16.0871 45.1182 14.1833 45.8888L8.6552 48.1248L26.8155 58.7231L53.6309 43.0793V15.9545ZM24.7527 23.3267C24.7527 21.1384 25.622 19.0397 27.1694 17.4924C28.7167 15.9451 30.8154 15.0758 33.0036 15.0758H37.818C41.993 15.0758 45.38 18.4586 45.38 22.6377V23.3267H41.2545V22.6377C41.2545 22.1864 41.1657 21.7396 40.993 21.3226C40.8203 20.9057 40.5671 20.5269 40.248 20.2077C39.9289 19.8886 39.5501 19.6355 39.1331 19.4628C38.7162 19.2901 38.2693 19.2012 37.818 19.2012H33.0036C31.9095 19.2012 30.8602 19.6359 30.0865 20.4095C29.3128 21.1832 28.8782 22.2325 28.8782 23.3267C28.8782 24.4208 29.3128 25.4701 30.0865 26.2438C30.8602 27.0175 31.9095 27.4521 33.0036 27.4521H37.1291C39.3174 27.4521 41.416 28.3214 42.9634 29.8688C44.5107 31.4161 45.38 33.5148 45.38 35.703C45.38 37.8913 44.5107 39.99 42.9634 41.5373C41.416 43.0846 39.3174 43.9539 37.1291 43.9539H33.0036C30.8154 43.9539 28.7167 43.0846 27.1694 41.5373C25.622 39.99 24.7527 37.8913 24.7527 35.703H28.8782C28.8782 36.7972 29.3128 37.8465 30.0865 38.6202C30.8602 39.3938 31.9095 39.8285 33.0036 39.8285H37.1291C38.2232 39.8285 39.2725 39.3938 40.0462 38.6202C40.8199 37.8465 41.2545 36.7972 41.2545 35.703C41.2545 34.6089 40.8199 33.5596 40.0462 32.7859C39.2725 32.0122 38.2232 31.5776 37.1291 31.5776H33.0036C30.8154 31.5776 28.7167 30.7083 27.1694 29.1609C25.622 27.6136 24.7527 25.5149 24.7527 23.3267Z" fill="#08A045"/>
</svg>
