<svg width="57" height="52" viewBox="0 0 57 52" fill="none" xmlns="http://www.w3.org/2000/svg">
<path d="M28.4081 30.0208C27.3318 30.0208 26.2995 29.5933 25.5385 28.8322C24.7774 28.0711 24.3498 27.0389 24.3498 25.9625C24.3498 24.8862 24.7774 23.854 25.5385 23.0929C26.2995 22.3318 27.3318 21.9042 28.4081 21.9042C29.4845 21.9042 30.5167 22.3318 31.2778 23.0929C32.0389 23.854 32.4664 24.8862 32.4664 25.9625C32.4664 27.0389 32.0389 28.0711 31.2778 28.8322C30.5167 29.5933 29.4845 30.0208 28.4081 30.0208ZM26.9796 38.1212C27.4522 38.6912 27.9283 39.2404 28.4081 39.7689C28.8879 39.2422 29.3641 38.693 29.8366 38.1212C28.8844 38.1413 27.9318 38.1413 26.9796 38.1212ZM21.5821 37.783C19.5047 37.5659 17.4408 37.2345 15.3999 36.7901C15.1961 37.737 15.0428 38.6524 14.94 39.5362C14.4259 43.8191 15.1429 46.4218 16.2332 47.0495C17.3235 47.6772 19.9344 46.9981 23.3894 44.4143C24.1018 43.8804 24.8179 43.2897 25.5375 42.6422C24.1307 41.0964 22.8102 39.4743 21.5821 37.783ZM41.4163 36.7901C39.3754 37.2345 37.3116 37.5659 35.2342 37.783C34.0061 39.4743 32.6856 41.0964 31.2787 42.6422C32.0002 43.2915 32.7162 43.8822 33.4269 44.4143C36.8819 46.9981 39.4927 47.6799 40.583 47.0495C41.6734 46.4218 42.3876 43.8191 41.879 39.5362C41.7686 38.6142 41.6124 37.6978 41.4163 36.7901ZM45.3421 35.7403C46.9032 42.8803 46.0834 48.5646 42.6149 50.5667C39.1464 52.5688 33.8138 50.4368 28.4108 45.5154C23.0079 50.4368 17.6753 52.5661 14.2068 50.564C10.7383 48.5619 9.91849 42.8803 11.4769 35.7376C4.51013 33.5218 0 29.9667 0 25.9625C0 21.9583 4.51013 18.406 11.4742 16.1874C9.91579 9.04483 10.7356 3.3632 14.2041 1.36111C17.6726 -0.640988 23.0052 1.48827 28.4081 6.40964C33.8111 1.48827 39.1437 -0.640988 42.6122 1.36111C46.0807 3.3632 46.9005 9.04483 45.3421 16.1874C52.3034 18.406 56.8135 21.9583 56.8135 25.9625C56.8135 29.9667 52.3034 33.5218 45.3421 35.7403ZM25.5348 9.28292C24.817 8.63539 24.1018 8.04468 23.3894 7.51079C19.9344 4.927 17.3235 4.24521 16.2305 4.8756C15.1402 5.50328 14.4259 8.10601 14.9346 12.3916C15.0428 13.2754 15.1961 14.1908 15.3945 15.1377C17.4362 14.6923 19.501 14.3599 21.5794 14.1421C22.8672 12.3726 24.1857 10.7529 25.5348 9.28292ZM35.2342 14.1421C37.3116 14.36 39.3755 14.6924 41.4163 15.1377C41.6202 14.189 41.7735 13.2736 41.8763 12.3916C42.3903 8.10601 41.6734 5.50328 40.583 4.8756C39.4927 4.24791 36.8819 4.927 33.4269 7.51079C32.7144 8.04468 31.9984 8.63539 31.2787 9.28292C32.6279 10.7529 33.9464 12.3726 35.2342 14.1421ZM29.8366 13.8039C29.3641 13.2339 28.8879 12.6847 28.4081 12.1562C27.9301 12.6847 27.454 13.2339 26.9796 13.8039C27.9318 13.7838 28.8844 13.7838 29.8366 13.8039ZM18.5924 33.2783C18.0989 32.4642 17.6226 31.6397 17.1639 30.8055C16.906 31.4999 16.6688 32.1871 16.4524 32.8671C17.1486 33.0168 17.861 33.1539 18.5897 33.2783M23.8168 33.9114C26.8717 34.1373 29.9391 34.1373 32.994 33.9114C34.718 31.3784 36.2527 28.7216 37.5853 25.9625C36.2535 23.2036 34.7198 20.5467 32.9967 18.0137C29.9418 17.7878 26.8744 17.7878 23.8195 18.0137C22.0964 20.5467 20.5627 23.2036 19.2309 25.9625C20.5627 28.7215 22.0964 31.3783 23.8195 33.9114M39.6523 21.1196C39.9103 20.4252 40.1474 19.7389 40.3639 19.0607C39.6546 18.9068 38.942 18.7688 38.2265 18.6468C38.7191 19.4609 39.1945 20.2854 39.6523 21.1196ZM12.5266 20.1105C11.6067 20.4081 10.7374 20.7327 9.91849 21.0845C5.95488 22.7835 4.0583 24.7045 4.0583 25.9625C4.0583 27.2206 5.95218 29.1415 9.91849 30.8406C10.7374 31.1923 11.6067 31.517 12.5266 31.8146C13.1273 29.9207 13.8713 27.9565 14.7587 25.9625C13.9076 24.0544 13.1625 22.1007 12.5266 20.1105ZM16.4497 19.0607C16.6679 19.7371 16.906 20.4225 17.1639 21.1169C17.6227 20.2836 18.0989 19.46 18.5924 18.6468C17.8619 18.7712 17.1459 18.9092 16.4497 19.0607ZM44.2923 31.8146C45.2122 31.517 46.0816 31.1923 46.9005 30.8406C50.8614 29.1415 52.7552 27.2206 52.7552 25.9625C52.7552 24.7045 50.8614 22.7835 46.8951 21.0845C46.0762 20.7327 45.2059 20.4081 44.2842 20.1105C43.689 22.0043 42.9423 23.9686 42.0548 25.9625C42.9423 27.9565 43.6863 29.9207 44.2869 31.8146M40.3639 32.8671C40.1438 32.1871 39.9057 31.4999 39.6496 30.8055C39.1909 31.6397 38.7146 32.4642 38.2211 33.2783C38.9516 33.1521 39.6677 33.015 40.3639 32.8671Z" fill="#08A045"/>
</svg>
