<svg width="19" height="19" viewBox="0 0 19 19" fill="none" xmlns="http://www.w3.org/2000/svg">
<path d="M17.0572 6.28541C16.8345 6.06279 16.5325 5.93773 16.2177 5.93773C15.9028 5.93773 15.6008 6.06279 15.3781 6.28541L9.49997 12.1635L3.62185 6.28541C3.39788 6.0691 3.09792 5.94941 2.78656 5.95211C2.4752 5.95482 2.17736 6.0797 1.95719 6.29988C1.73702 6.52005 1.61213 6.81789 1.60942 7.12925C1.60672 7.44061 1.72641 7.74057 1.94272 7.96454L8.66041 14.6822C8.8831 14.9048 9.18509 15.0299 9.49997 15.0299C9.81486 15.0299 10.1168 14.9048 10.3395 14.6822L17.0572 7.96453C17.2798 7.74185 17.4049 7.43986 17.4049 7.12497C17.4049 6.81009 17.2798 6.5081 17.0572 6.28541Z" fill="#212529"/>
</svg>
