<svg width="206" height="90" viewBox="0 0 206 90" fill="none" xmlns="http://www.w3.org/2000/svg">
<path d="M39.72 41H22.44V34.28H26.76V14.12H22.44V7.4H39.72V14.12H35.4V34.28H39.72V41ZM52.1963 41.48C49.0603 41.48 46.7563 40.744 45.2843 39.272C43.8123 37.8 43.0763 35.496 43.0763 32.36V17C43.0763 13.64 43.8283 11.208 45.3323 9.704C46.8683 8.168 49.3163 7.4 52.6763 7.4H69.9563V14.12H54.5963C52.6763 14.12 51.7163 15.08 51.7163 17V32.36C51.7163 33.096 51.9243 33.688 52.3403 34.136C52.7883 34.552 53.3803 34.76 54.1163 34.76C55.0763 34.76 56.1323 34.76 57.2843 34.76C58.4683 34.728 59.5723 34.696 60.5963 34.664C61.7803 34.632 62.9803 34.584 64.1963 34.52V27.56H57.9563V21.8H72.8363V40.28C70.4363 40.536 68.0203 40.744 65.5883 40.904C63.5083 41.064 61.2683 41.192 58.8683 41.288C56.4683 41.416 54.2443 41.48 52.1963 41.48ZM99.2456 16.52C99.2456 14.6 98.2856 13.64 96.3656 13.64H88.2056C86.2856 13.64 85.3256 14.6 85.3256 16.52V31.88C85.3256 33.8 86.2856 34.76 88.2056 34.76H96.3656C98.2856 34.76 99.2456 33.8 99.2456 31.88V16.52ZM107.886 31.88C107.886 35.24 107.118 37.688 105.582 39.224C104.078 40.728 101.646 41.48 98.2856 41.48H86.2856C82.9256 41.48 80.4776 40.728 78.9416 39.224C77.4376 37.688 76.6856 35.24 76.6856 31.88V16.52C76.6856 13.16 77.4376 10.728 78.9416 9.224C80.4776 7.688 82.9256 6.92 86.2856 6.92H98.2856C101.646 6.92 104.078 7.688 105.582 9.224C107.118 10.728 107.886 13.16 107.886 16.52V31.88ZM112.708 7.4H132.868C136.228 7.4 138.66 8.168 140.164 9.704C141.7 11.208 142.468 13.64 142.468 17V21.32C142.468 23.976 142.02 26.04 141.124 27.512C140.26 28.984 138.868 29.96 136.948 30.44L142.948 41H133.588L128.068 30.92H121.348V41H112.708V7.4ZM133.828 17C133.828 15.08 132.868 14.12 130.948 14.12H121.348V24.2H130.948C132.868 24.2 133.828 23.24 133.828 21.32V17ZM29.28 77.36C26.928 77.36 25.2 76.808 24.096 75.704C22.992 74.6 22.44 72.872 22.44 70.52V59C22.44 56.48 23.004 54.656 24.132 53.528C25.284 52.376 27.12 51.8 29.64 51.8H42.6V56.84H31.08C29.64 56.84 28.92 57.56 28.92 59V70.52C28.92 71.072 29.076 71.516 29.388 71.852C29.724 72.164 30.168 72.32 30.72 72.32C31.44 72.32 32.232 72.32 33.096 72.32C33.984 72.296 34.812 72.272 35.58 72.248C36.468 72.224 37.368 72.188 38.28 72.14V66.92H33.6V62.6H44.76V76.46C42.96 76.652 41.148 76.808 39.324 76.928C37.764 77.048 36.084 77.144 34.284 77.216C32.484 77.312 30.816 77.36 29.28 77.36ZM52.867 77H45.847L55.387 51.8H62.587L72.127 77H65.107L63.487 72.5H54.487L52.867 77ZM56.107 67.82H61.867L58.987 59.36L56.107 67.82ZM80.4056 71.96H93.5456V77H73.9256V51.8H80.4056V71.96ZM107.954 77H94.9941V71.96H98.2341V56.84H94.9941V51.8H107.954V56.84H104.714V71.96H107.954V77ZM133.151 77H126.311L117.671 61.88V77H111.191V51.8H118.031L126.671 66.92V51.8H133.151V77ZM151.528 51.8C154.24 51.8 156.292 52.508 157.684 53.924C159.1 55.316 159.808 57.368 159.808 60.08V68.72C159.808 71.432 159.1 73.496 157.684 74.912C156.292 76.304 154.24 77 151.528 77H137.488V51.8H151.528ZM153.328 60.08C153.328 57.92 152.248 56.84 150.088 56.84H143.968V71.96H150.088C152.248 71.96 153.328 70.88 153.328 68.72V60.08ZM179.598 58.64C179.598 57.2 178.878 56.48 177.438 56.48H171.318C169.878 56.48 169.158 57.2 169.158 58.64V70.16C169.158 71.6 169.878 72.32 171.318 72.32H177.438C178.878 72.32 179.598 71.6 179.598 70.16V58.64ZM186.078 70.16C186.078 72.68 185.502 74.516 184.35 75.668C183.222 76.796 181.398 77.36 178.878 77.36H169.878C167.358 77.36 165.522 76.796 164.37 75.668C163.242 74.516 162.678 72.68 162.678 70.16V58.64C162.678 56.12 163.242 54.296 164.37 53.168C165.522 52.016 167.358 51.44 169.878 51.44H178.878C181.398 51.44 183.222 52.016 184.35 53.168C185.502 54.296 186.078 56.12 186.078 58.64V70.16Z" fill="white"/>
<path d="M4.32 7.8C4.32 5.624 4.976 3.88 6.288 2.568C7.6 1.256 9.344 0.599999 11.52 0.599999H17.76V7.32H14.64C14.16 7.32 13.76 7.48 13.44 7.8C13.12 8.12 12.96 8.52 12.96 9V18.84C12.96 20.184 12.592 21.368 11.856 22.392C11.152 23.416 10.08 24.232 8.64 24.84C10.08 25.448 11.152 26.264 11.856 27.288C12.592 28.312 12.96 29.496 12.96 30.84V40.68C12.96 41.16 13.12 41.56 13.44 41.88C13.76 42.2 14.16 42.36 14.64 42.36H17.76V49.08H11.52C9.344 49.08 7.6 48.424 6.288 47.112C4.976 45.8 4.32 44.056 4.32 41.88V29.88C4.32 29.4 4.16 29 3.84 28.68C3.52 28.36 3.12 28.2 2.64 28.2H0.48V21.48H2.64C3.12 21.48 3.52 21.32 3.84 21C4.16 20.68 4.32 20.28 4.32 19.8V7.8Z" fill="#08A045"/>
<path d="M201.44 59.8C201.44 60.28 201.6 60.68 201.92 61C202.24 61.32 202.64 61.48 203.12 61.48H205.28V68.2H203.12C202.64 68.2 202.24 68.36 201.92 68.68C201.6 69 201.44 69.4 201.44 69.88V81.88C201.44 84.056 200.784 85.8 199.472 87.112C198.16 88.424 196.416 89.08 194.24 89.08H188V82.36H191.12C191.6 82.36 192 82.2 192.32 81.88C192.64 81.56 192.8 81.16 192.8 80.68V70.84C192.8 69.496 193.152 68.312 193.856 67.288C194.592 66.264 195.68 65.448 197.12 64.84C195.68 64.232 194.592 63.416 193.856 62.392C193.152 61.368 192.8 60.184 192.8 58.84V49C192.8 48.52 192.64 48.12 192.32 47.8C192 47.48 191.6 47.32 191.12 47.32H188V40.6H194.24C196.416 40.6 198.16 41.256 199.472 42.568C200.784 43.88 201.44 45.624 201.44 47.8V59.8Z" fill="#08A045"/>
</svg>
