<svg width="37" height="37" viewBox="0 0 37 37" fill="none" xmlns="http://www.w3.org/2000/svg">
<circle cx="18.5" cy="18.5" r="17" stroke="#212529" stroke-width="3"/>
<path d="M18.685 15.6141C17.8688 15.6141 17.0859 15.9312 16.5087 16.4955C15.9316 17.0599 15.6073 17.8253 15.6073 18.6234C15.6073 19.4216 15.9316 20.187 16.5087 20.7514C17.0859 21.3157 17.8688 21.6328 18.685 21.6328C19.5013 21.6328 20.2841 21.3157 20.8613 20.7514C21.4385 20.187 21.7628 19.4216 21.7628 18.6234C21.7628 17.8253 21.4385 17.0599 20.8613 16.4955C20.2841 15.9312 19.5013 15.6141 18.685 15.6141ZM18.685 23.639C17.3246 23.639 16.0199 23.1106 15.0579 22.17C14.0959 21.2294 13.5555 19.9536 13.5555 18.6234C13.5555 17.2932 14.0959 16.0175 15.0579 15.0769C16.0199 14.1363 17.3246 13.6079 18.685 13.6079C20.0455 13.6079 21.3502 14.1363 22.3122 15.0769C23.2741 16.0175 23.8146 17.2932 23.8146 18.6234C23.8146 19.9536 23.2741 21.2294 22.3122 22.17C21.3502 23.1106 20.0455 23.639 18.685 23.639ZM18.685 11.1001C13.5555 11.1001 9.17485 14.2198 7.40002 18.6234C9.17485 23.0271 13.5555 26.1468 18.685 26.1468C23.8146 26.1468 28.1952 23.0271 29.97 18.6234C28.1952 14.2198 23.8146 11.1001 18.685 11.1001Z" fill="#212529"/>
</svg>
